<?xml version="1.0" encoding="utf-8"?>
<!-- Generator: Adobe Illustrator 26.3.1, SVG Export Plug-In . SVG Version: 6.00 Build 0)  -->
<svg version="1.1" id="Capa_1" xmlns="http://www.w3.org/2000/svg" xmlns:xlink="http://www.w3.org/1999/xlink" x="0px" y="0px"
	 viewBox="0 0 61.8 59.1" style="enable-background:new 0 0 61.8 59.1;" xml:space="preserve">
<style type="text/css">
	.st0{fill:#576574;}
</style>
<g>
	<path class="st0" d="M59.3,17.1c-0.5-0.7-1.1-1.4-1.8-1.8c-0.9-0.6-2-0.9-3.2-0.9h-1.1v-1.1c0-3.3-2.7-5.9-5.9-5.9h-1.1V6.2
		c0-3.3-2.7-5.9-5.9-5.9H7.5C4.3,0.3,1.6,3,1.6,6.2v32.6c0,3.3,2.7,5.9,5.9,5.9h1.1v1.1c0,3.3,2.7,5.9,5.9,5.9h1.1v1.1
		c0,1.2,0.3,2.2,0.9,3.2c0.5,0.7,1.1,1.4,1.8,1.8c0.9,0.6,2,0.9,3.2,0.9h32.8c1.2,0,2.2-0.3,3.2-0.9c0.7-0.5,1.4-1.1,1.8-1.8
		c0.6-0.9,0.9-2,0.9-3.2V20.2C60.2,19.1,59.8,18,59.3,17.1 M16.5,17.1c-0.6,0.9-0.9,2-0.9,3.2V43h-5.1V13.2c0-2.2,1.8-4.1,4.1-4.1
		h29.9v5.1H21.5c-1.2,0-2.2,0.3-3.2,0.9C17.6,15.7,17,16.3,16.5,17.1 M47.3,9.2c2.2,0,4.1,1.8,4.1,4.1v1.1h-5.1V9.2L47.3,9.2
		L47.3,9.2z M7.5,43c-2.2,0-4.1-1.8-4.1-4.1V6.2c0-2.2,1.8-4.1,4.1-4.1h32.8c2.2,0,4.1,1.8,4.1,4.1v1.1H14.5c-3.3,0-5.9,2.6-5.9,5.9
		V43H7.5z M14.5,49.9c-2.2,0-4.1-1.8-4.1-4.1v-1.1h5.1v5.1L14.5,49.9L14.5,49.9z M58.3,52.9c0,2.2-1.8,4.1-4.1,4.1H21.5
		c-2.2,0-4.1-1.8-4.1-4.1v-1.1v-1.8v-5.1v-1.8V20.2c0-2.2,1.8-4.1,4.1-4.1h22.9h1.8h5.1h1.8h1.1c2.2,0,4.1,1.8,4.1,4.1L58.3,52.9
		L58.3,52.9z"/>
	<path class="st0" d="M31.8,29.4c-3.9,0-7.2,3.2-7.2,7.2c0,2.8,1.6,5.3,4,6.4c0.9,0.5,2,0.7,3.1,0.7S34,43.4,35,43
		c2.4-1.2,4-3.6,4-6.4C39,32.6,35.8,29.4,31.8,29.4 M31.8,41.8c-2.9,0-5.3-2.4-5.3-5.3c0-2.9,2.4-5.3,5.3-5.3s5.3,2.4,5.3,5.3
		C37.2,39.5,34.8,41.8,31.8,41.8"/>
	<path class="st0" d="M48.6,29.4c-0.5,0-0.9,0.4-0.9,0.9v12.5c0,0.5,0.4,0.9,0.9,0.9s0.9-0.4,0.9-0.9V30.3
		C49.5,29.8,49.1,29.4,48.6,29.4"/>
</g>
</svg>
