<?xml version="1.0" encoding="utf-8"?>
<!-- Generator: Adobe Illustrator 26.0.1, SVG Export Plug-In . SVG Version: 6.00 Build 0)  -->
<svg version="1.1" id="Capa_1" xmlns="http://www.w3.org/2000/svg" xmlns:xlink="http://www.w3.org/1999/xlink" x="0px" y="0px"
	 viewBox="0 0 61.8 59.1" style="enable-background:new 0 0 61.8 59.1;" xml:space="preserve">
<style type="text/css">
	.st0{fill:none;stroke:#576574;stroke-width:2.69;stroke-miterlimit:10;}
</style>
<g id="Group_1157" transform="translate(-8.788 -10.018)">
	<path id="Path_1267" class="st0" d="M24.8,13.5L24.8,13.5c9.7-2.6,19.8-2.6,29.5,0l0.3,0.1c19.6,5.5,19.6,19.3,0.1,24.8l0,0
		C45,41,34.9,41,25.2,38.4l-0.3-0.1C5.3,32.7,5.2,19,24.8,13.5z"/>
	<path id="Path_1268" class="st0" d="M24.8,27.2L24.8,27.2c9.7-2.6,19.8-2.6,29.5,0l0.3,0.1c19.6,5.5,19.6,19.3,0.1,24.8l0,0
		c-9.7,2.6-19.8,2.6-29.5,0L24.9,52C5.3,46.4,5.2,32.7,24.8,27.2z"/>
	<path id="Path_1269" class="st0" d="M24.8,40.8L24.8,40.8c9.7-2.6,19.8-2.6,29.5,0l0.3,0.1c19.6,5.5,19.6,19.3,0.1,24.8l0,0
		c-9.7,2.6-19.8,2.6-29.5,0l-0.3-0.1C5.3,60.1,5.2,46.4,24.8,40.8z"/>
</g>
</svg>
