<?xml version="1.0" encoding="utf-8"?>
<!-- Generator: Adobe Illustrator 26.5.0, SVG Export Plug-In . SVG Version: 6.00 Build 0)  -->
<svg version="1.1" id="Capa_1" xmlns="http://www.w3.org/2000/svg" xmlns:xlink="http://www.w3.org/1999/xlink" x="0px" y="0px"
	 viewBox="0 0 61.8 59.1" style="enable-background:new 0 0 61.8 59.1;" xml:space="preserve">
<style type="text/css">
	.st0{fill:#576574;}
</style>
<g>
	<path class="st0" d="M58.3,34.2c-2.3,0-4.6,0-6.8,0c-1.6,0-2.6,1-2.6,2.6c0,2.6,0,5.2,0,7.8c0,0.4-0.1,0.5-0.5,0.5
		c-1.3,0-2.5,0-3.8,0c-0.2,0-0.4,0-0.5-0.2c-0.8-0.8-1.7-1.6-2.6-2.5c1.2-0.6,2.4-1.2,3.5-1.8c1.4-0.7,2.1-1.8,2.1-3.4
		c0-5,0-10,0-15c0-1.6-0.6-2.7-2.1-3.4c-1.5-0.8-3-1.6-4.6-2.5c0.7-0.6,1.3-1.1,1.9-1.6c0.3-0.2,0.6-0.3,1-0.3c1.6,0,3.3,0,4.9,0
		c0.6,0,0.8,0.1,0.8,0.7c0,2.5,0,5,0,7.6c0,1.7,1,2.6,2.6,2.6c2.3,0,4.6,0,6.8,0c1.6,0,2.6-1,2.6-2.5c0-2.6,0-5.2,0-7.8
		c0-1.6-1-2.5-2.6-2.5c-5.2,0-10.5,0-15.7,0c-0.4,0-0.8,0.1-1.1,0.4c-0.9,0.7-1.8,1.4-2.6,2.2c-0.3,0.3-0.5,0.3-0.9,0.1
		c-1.8-1-3.7-2-5.5-3c-1.1-0.6-2.1-0.6-3.2,0c-1.3,0.7-2.6,1.4-3.9,2.1c-0.7,0.4-0.9,0.9-0.6,1.4c0.3,0.6,0.8,0.7,1.6,0.3
		c1.3-0.7,2.6-1.4,3.9-2.1c0.4-0.2,0.8-0.3,1.3-0.1c1.8,0.9,3.5,1.9,5.4,2.9c-0.6,0.5-1.1,0.9-1.7,1.4c-0.5,0.4-0.6,1-0.3,1.4
		c0.4,0.5,0.9,0.5,1.5,0.1c0.6-0.5,1.3-1,1.9-1.6c0.3-0.3,0.6-0.3,1-0.1c1.4,0.8,2.8,1.5,4.2,2.3c0.2,0.1,0.4,0.1,0.4,0.3
		c-4.2,2.1-8.4,4.3-12.5,6.4c-0.3,0.1-0.5,0.1-0.7,0c-4.2-2.1-8.3-4.3-12.6-6.4c1.2-0.7,2.3-1.2,3.4-1.9c0.7-0.4,0.9-0.9,0.6-1.5
		c-0.3-0.5-0.9-0.6-1.5-0.3c-1.2,0.6-2.3,1.3-3.5,1.9c-1.4,0.7-2.1,1.9-2.1,3.5c0,3.9,0,7.8,0,11.7c0,1.2,0,1.2-1.2,1.3
		c-0.5,0-0.6-0.1-0.6-0.6c0-2.6,0-5.1,0-7.7c0-1.6-1-2.6-2.6-2.6c-2.2,0-4.4,0-6.7,0c-1.9,0-2.8,0.9-2.8,2.8c0,2.4,0,4.8,0,7.2
		c0,2,0.9,2.9,2.9,2.9c3.5,0,6.9,0,10.4,0c0.3,0,0.6-0.1,0.6,0.4c0,1.4,0.7,2.3,2,2.9c4.1,2.1,8.3,4.2,12.4,6.3
		c1.2,0.6,2.3,0.6,3.4,0c2.1-1.1,4.2-2.1,6.3-3.2c0.5-0.3,0.8-0.3,1.2,0.2c0.9,1,1.8,1.8,2.7,2.8c0.3,0.3,0.7,0.5,1.2,0.5
		c4.8,0,9.5,0,14.3,0c1.6,0,2.6-1,2.6-2.6c0-2.6,0-5.2,0-7.8C60.9,35.1,59.9,34.2,58.3,34.2z M51.6,14.4c2.2,0,4.4,0,6.6,0
		c0.6,0,0.8,0.2,0.8,0.8c0,2.5,0,5,0,7.4c0,0.6-0.2,0.8-0.8,0.7c-2.2,0-4.4,0-6.6,0c-0.6,0-0.8-0.2-0.8-0.8c0-1.2,0-2.5,0-3.7
		s0-2.5,0-3.7C50.8,14.7,51,14.4,51.6,14.4z M10.3,35.2c-2.2,0-4.4,0-6.6,0c-0.5,0-0.7-0.2-0.7-0.7c0-2.5,0-5,0-7.5
		c0-0.5,0.2-0.7,0.8-0.7c2.2,0,4.4,0,6.6,0c0.5,0,0.7,0.2,0.7,0.7c0,1.2,0,2.5,0,3.7c0,1.2,0,2.5,0,3.7C11,35,10.9,35.2,10.3,35.2z
		 M29.9,44.7c0,0.1,0,0.1,0,0.2c-0.2,0.1-0.3-0.1-0.5-0.1c-3.9-2-7.8-4-11.7-6c-0.3-0.2-0.6-0.3-0.8-0.7c-0.4-0.7-0.2-1,0.6-1
		c1.2,0,2.5,0,3.7,0c0.9,0,1.4-0.8,1-1.4c-0.2-0.4-0.5-0.5-1-0.5c-1.3,0-2.6,0-4,0c-0.4,0-0.5-0.1-0.5-0.5c0-4.1,0-8.2,0-12.4
		c0,0,0-0.1,0-0.2c1.1,0.6,2.2,1.1,3.3,1.7c3.1,1.6,6.2,3.1,9.2,4.7c0.3,0.2,0.5,0.3,0.5,0.7C29.9,34.5,29.9,39.6,29.9,44.7z
		 M39.6,40.6c-0.7-0.7-1.4-1.5-2.2-2.2c-0.5-0.5-1.1-0.6-1.6-0.1c-0.4,0.4-0.3,1,0.2,1.5c0.6,0.6,1.2,1.2,1.8,1.8
		c0.2,0.2,0.3,0.3,0,0.5c-1.9,1-3.9,2-5.9,3c0-0.3,0-0.5,0-0.7c0-5,0-9.9,0-14.9c0-0.4,0-0.6,0.4-0.8c4.1-2.1,8.2-4.2,12.3-6.3
		c0.1,0,0.2-0.1,0.4-0.2c0,0.2,0,0.4,0,0.6c0,4.8,0,9.6,0,14.3c0,0.8-0.3,1.4-1,1.7c-1.2,0.6-2.4,1.2-3.6,1.8
		C40.1,40.9,39.9,40.8,39.6,40.6z M58.2,45.1c-2.2,0-4.5,0-6.7,0c-0.5,0-0.7-0.2-0.7-0.7c0-1.2,0-2.5,0-3.7c0-1.3,0-2.5,0-3.8
		c0-0.5,0.2-0.7,0.7-0.7c2.2,0,4.5,0,6.7,0c0.5,0,0.7,0.2,0.7,0.7c0,2.5,0,5,0,7.6C58.9,44.9,58.7,45.1,58.2,45.1z"/>
	<path class="st0" d="M5.3,29.9c0.6,0,1.1,0,1.7,0c0.6,0,1.2,0,1.8,0c0.6,0,1-0.4,1-1c0-0.6-0.4-1-1-1c-1.2,0-2.4,0-3.5,0
		c-0.7,0-1.1,0.4-1.1,1C4.2,29.5,4.6,29.9,5.3,29.9z"/>
	<path class="st0" d="M8.8,31.6c-0.2,0-0.3,0-0.5,0c-0.5,0-0.9,0-1.4,0c-0.4,0-0.9,0-1.3,0c-0.2,0-0.3,0-0.4,0c-0.6,0-1,0.4-1,1
		c0,0.5,0.4,1,1,1c1.2,0,2.5,0,3.7,0c0.6,0,1-0.4,1-1C9.8,32,9.4,31.6,8.8,31.6z"/>
	<path class="st0" d="M56.7,19.8c-1.2,0-2.4,0-3.5,0c-0.7,0-1.1,0.4-1.1,1c0,0.6,0.4,1,1.1,1c0.6,0,1.1,0,1.7,0c0.6,0,1.2,0,1.8,0
		c0.6,0,1-0.4,1-0.9C57.7,20.2,57.3,19.8,56.7,19.8z"/>
	<path class="st0" d="M53.1,18.1c0.6,0,1.2,0,1.8,0c0.6,0,1.1,0,1.7,0c0.7,0,1.1-0.4,1.1-1c0-0.6-0.4-1-1.1-1c-1.2,0-2.3,0-3.5,0
		c-0.7,0-1.1,0.4-1.1,1C52,17.7,52.5,18.1,53.1,18.1z"/>
	<path class="st0" d="M53.1,39.8c1.2,0,2.4,0,3.5,0c0.7,0,1.1-0.4,1.1-1c0-0.6-0.4-0.9-1.1-1c-0.6,0-1.1,0-1.7,0l0,0
		c-0.6,0-1.2,0-1.8,0c-0.6,0-1,0.4-1,1C52,39.4,52.5,39.8,53.1,39.8z"/>
	<path class="st0" d="M56.7,41.4c-0.4,0-0.9,0-1.3,0c-0.2,0-0.3,0-0.4,0c-0.3,0-0.6,0-0.9,0c-0.3,0-0.6,0-0.9,0c-0.6,0-1,0.4-1,1
		c0,0.5,0.4,1,1,1c1.2,0,2.4,0,3.7,0c0.6,0,1-0.5,1-1C57.7,41.9,57.3,41.5,56.7,41.4z"/>
</g>
</svg>
