<?xml version="1.0" encoding="utf-8"?>
<!-- Generator: Adobe Illustrator 26.0.1, SVG Export Plug-In . SVG Version: 6.00 Build 0)  -->
<svg version="1.1" id="Group_926" xmlns="http://www.w3.org/2000/svg" xmlns:xlink="http://www.w3.org/1999/xlink" x="0px" y="0px"
	 viewBox="0 0 95.1 93.1" style="enable-background:new 0 0 95.1 93.1;" xml:space="preserve">
<style type="text/css">
	.st0{fill:#576574;}
</style>
<g>
	<g>
		<path class="st0" d="M83.9,7.1c0-3.1-2.5-5.6-5.6-5.6H16.8c-3.1,0-5.6,2.5-5.6,5.6v12.7c0,1.5,0.6,2.9,1.6,3.9
			c-1,1-1.6,2.4-1.6,3.9v12.7c0,1.5,0.6,2.9,1.6,3.9c-1,1-1.6,2.4-1.6,3.9V61c0,3.1,2.5,5.6,5.6,5.6h61.6c3.1,0,5.6-2.5,5.6-5.6
			V48.3c0-1.5-0.6-2.9-1.6-3.9c1-1,1.6-2.4,1.6-3.9V27.7c0-1.5-0.6-2.9-1.6-3.9c1-1,1.6-2.4,1.6-3.9V7.1L83.9,7.1z M14.5,7.1
			c0-1.3,1-2.3,2.3-2.3h61.6c1.3,0,2.3,1,2.3,2.3v12.7c0,1.3-1,2.3-2.3,2.3H16.8c-1.3,0-2.3-1-2.3-2.3L14.5,7.1L14.5,7.1z
			 M80.6,27.7v12.7c0,1.3-1,2.3-2.3,2.3H16.8c-1.3,0-2.3-1-2.3-2.3V27.7c0-1.3,1-2.3,2.3-2.3h61.6C79.6,25.5,80.6,26.5,80.6,27.7z
			 M80.6,61c0,1.3-1,2.3-2.3,2.3H16.8c-1.3,0-2.3-1-2.3-2.3V48.3c0-1.3,1-2.3,2.3-2.3h61.6c1.3,0,2.3,1,2.3,2.3L80.6,61L80.6,61z"/>
		<path class="st0" d="M46.8,15.2h20.8c0.9,0,1.7-0.8,1.7-1.7s-0.8-1.7-1.7-1.7H46.8c-0.9,0-1.7,0.8-1.7,1.7
			C45.2,14.4,45.9,15.2,46.8,15.2z"/>
		<circle class="st0" cx="29.9" cy="13.5" r="2"/>
		<path class="st0" d="M46.8,35.7h20.8c0.9,0,1.7-0.8,1.7-1.7s-0.8-1.7-1.7-1.7H46.8c-0.9,0-1.7,0.8-1.7,1.7
			C45.2,35,45.9,35.7,46.8,35.7z"/>
		<path class="st0" d="M67.6,53H46.8c-0.9,0-1.7,0.8-1.7,1.7s0.8,1.7,1.7,1.7h20.8c0.9,0,1.7-0.8,1.7-1.7S68.4,53,67.6,53z"/>
		<circle class="st0" cx="29.9" cy="34.1" r="2"/>
		<circle class="st0" cx="29.9" cy="54.7" r="2"/>
		<path class="st0" d="M80.2,78.4c-3.1,0-5.6,2.1-6.4,4.9H54c-0.6-2.3-2.4-4.1-4.7-4.7v-5.2c0-0.9-0.8-1.7-1.7-1.7s-1.7,0.8-1.7,1.7
			v5.2c-2.3,0.6-4.1,2.4-4.7,4.7h-20c-0.7-2.8-3.3-4.9-6.4-4.9c-3.6,0-6.6,3-6.6,6.6s3,6.6,6.6,6.6c3.1,0,5.6-2.1,6.4-4.9h20
			c0.7,2.8,3.3,4.9,6.4,4.9s5.6-2.1,6.4-4.9h20c0.7,2.8,3.3,4.9,6.4,4.9c3.6,0,6.6-3,6.6-6.6C86.9,81.4,83.9,78.4,80.2,78.4z
			 M14.8,88.3c-1.8,0-3.3-1.5-3.3-3.3s1.5-3.3,3.3-3.3s3.3,1.5,3.3,3.3S16.6,88.3,14.8,88.3z M47.5,88.3c-1.8,0-3.3-1.5-3.3-3.3
			s1.5-3.3,3.3-3.3s3.3,1.5,3.3,3.3C50.8,86.8,49.4,88.3,47.5,88.3z M80.2,88.3c-1.8,0-3.3-1.5-3.3-3.3s1.5-3.3,3.3-3.3
			s3.3,1.5,3.3,3.3C83.4,86.8,82.1,88.3,80.2,88.3z"/>
	</g>
</g>
</svg>
