<?xml version="1.0" encoding="utf-8"?>
<!-- Generator: Adobe Illustrator 26.2.1, SVG Export Plug-In . SVG Version: 6.00 Build 0)  -->
<svg version="1.1" id="Group_926" xmlns="http://www.w3.org/2000/svg" xmlns:xlink="http://www.w3.org/1999/xlink" x="0px" y="0px"
	 viewBox="0 0 95.1 93.1" style="enable-background:new 0 0 95.1 93.1;" xml:space="preserve">
<style type="text/css">
	.st0{fill:#576574;}
</style>
<g>
	<path class="st0" d="M93.5,8.7c0,15.9,0,31.8,0,47.7c-0.7,2.1-2.2,3.4-4.1,4.4c-1.3,0.6-2.6,1.2-3.9,1.6
		c-9.1,2.6-18.3,2.7-27.6,1.3c-2.2-0.3-4.4-0.9-6.7-1.4c0,0.3,0,0.6,0,0.9c0,6.5-0.1,13,0,19.5c0,2.4-0.9,4.2-2.9,5.3
		c-1.8,1-3.8,2-5.8,2.5c-10.1,2.7-20.3,2.7-30.5,0.5c-2.9-0.6-5.7-1.5-8.1-3.4c-1.5-1.2-2.3-2.7-2.3-4.6c0-14.9,0-29.8,0-44.7
		c0-2.1,0.8-3.8,2.5-4.9c1.5-1,3.2-1.8,4.9-2.4c4.2-1.5,8.6-2,13.1-2.3c6.5-0.3,12.9,0,19.2,1.5c0.9,0.2,1.7,0.5,2.6,0.7
		c0-0.5,0-0.8,0-1.2c0-6.6,0-13.2,0-19.8c0-1.6,0.5-2.9,1.7-3.9c0.8-0.7,1.7-1.3,2.7-1.8c3.7-1.8,7.6-2.6,11.6-3.1
		c1.7-0.2,3.5-0.4,5.2-0.5c2.4,0,4.8,0,7.2,0c1.7,0.2,3.5,0.3,5.2,0.5c3.8,0.5,7.6,1.2,11.1,2.8C90.8,5,92.7,6.3,93.5,8.7z
		 M47.6,73.2c-6.8,3.2-13.9,3.9-21.2,3.9c-7.3,0-14.4-0.7-21.2-3.9c0,3.3,0,6.4,0,9.6c0,1,0.3,1.7,1.1,2.1c1.6,0.8,3.3,1.6,5,2.2
		c3.8,1.2,7.8,1.6,11.8,1.8c5.9,0.3,11.8-0.1,17.5-1.5c2.1-0.5,4.2-1.2,5.9-2.5c0.4-0.3,0.9-0.9,1-1.4C47.6,80,47.6,76.6,47.6,73.2z
		 M89.9,14.5c-6.8,3.2-13.9,3.9-21.2,3.9c-7.3,0-14.4-0.7-21.2-3.9c0,0.4,0,0.7,0,1c0,2.8,0.1,5.6,0,8.3c0,1.2,0.5,2,1.4,2.5
		c1.9,1.2,4.1,1.8,6.3,2.3c6.3,1.4,12.7,1.7,19.1,1.2c3.8-0.3,7.6-0.8,11.2-2.2c1.3-0.5,2.5-1.2,3.6-1.9c0.4-0.2,0.8-0.9,0.8-1.3
		C89.9,21.3,89.9,17.9,89.9,14.5z M5.2,42.4c0,3.2,0.1,6.3,0,9.4c0,1.2,0.4,2,1.4,2.5C8,55,9.5,55.7,11,56.2
		c4.2,1.3,8.5,1.7,12.9,1.9c5.6,0.2,11.1-0.1,16.5-1.5c2-0.5,4-1.5,5.9-2.3c0.9-0.4,1.3-1.2,1.3-2.3c-0.1-2.9,0-5.9,0-8.8
		c0-0.2,0-0.5-0.1-0.8C38.6,47.4,15.5,47.9,5.2,42.4z M5.2,57.8c0,0.3,0,0.6,0,0.8c0,3,0,5.9,0,8.9c0,0.8,0.2,1.4,0.9,1.8
		c1.1,0.6,2.3,1.3,3.5,1.8c3.9,1.4,8,2,12.1,2.2c6.5,0.4,13,0.2,19.4-1.6c1.8-0.5,3.5-1.3,5.2-2.1c0.9-0.4,1.3-1.2,1.3-2.3
		c-0.1-2.9,0-5.7,0-8.6c0-0.3,0-0.5,0-0.9c-6.8,3.2-13.9,3.9-21.2,3.9S12,61,5.2,57.8z M47.5,29.8c0,0.5,0.1,1,0,1.4
		c-0.1,0.9,0.2,1.4,1,1.9c1.8,1.2,2.8,2.8,2.7,5.1c-0.1,1.5,0,3,0,4.7c2,0.5,4,1.1,6,1.5c7,1.3,14,1.3,21,0.4
		c3.2-0.4,6.3-1.1,9.3-2.5c1.7-0.8,2.7-1.8,2.5-4c-0.2-2.8-0.1-5.7-0.1-8.6C83.2,33,76,33.7,68.8,33.7
		C61.5,33.8,54.4,33.1,47.5,29.8z M89.9,45.4c-12.8,4.9-25.7,4.6-38.8,1.5c0,3.3,0.1,6.7,0,10.1c0,1.1,0.3,1.5,1.3,1.8
		c4.9,1.5,10,2,15.1,2.1c5.5,0.1,11-0.3,16.3-1.8c1.7-0.5,3.4-1.4,5-2.2c0.5-0.2,1-0.9,1-1.4C89.9,52,89.9,48.7,89.9,45.4z
		 M67.8,4.1c-1.5,0.1-3.9,0.2-6.3,0.4c-3.7,0.4-7.4,1-10.9,2.5c-0.8,0.4-1.6,0.8-2.4,1.4c-1,0.7-0.9,1.2,0,2
		c0.4,0.4,0.9,0.7,1.4,0.9c1.3,0.6,2.6,1.1,3.9,1.5c5.3,1.5,10.7,1.9,16.1,1.8c5-0.1,10-0.5,14.8-2c1.5-0.5,3-1.2,4.4-2
		c1.5-0.9,1.4-1.7,0-2.6c-1.1-0.7-2.2-1.2-3.4-1.6C80,4.7,74.4,4.3,67.8,4.1z M25.7,42.8c5,0,9.4-0.3,13.6-1.3
		c2.2-0.6,4.5-1.3,6.5-2.3c2.2-1.1,2.2-2.1,0-3.3c-1.2-0.7-2.6-1.2-3.9-1.7c-5-1.5-10.1-2-15.2-2c-5.3,0-10.5,0.4-15.5,1.9
		c-1.7,0.5-3.3,1.3-4.9,2.1c-1.5,0.8-1.5,1.7,0,2.6c1.1,0.7,2.2,1.3,3.4,1.7C15.1,42.3,20.7,42.7,25.7,42.8z"/>
	<path class="st0" d="M93.5,80.3c-0.3,0.4-0.5,0.8-0.8,1.1c-3.4,3.5-6.9,6.9-10.3,10.4c-0.6,0.6-1.3,1-2.2,0.7
		c-0.9-0.3-1.2-1-1.2-1.9c0-1.4,0-2.9,0-4.4c-0.4,0-0.7,0-1,0c-3.5,0-7,0-10.5,0c-0.3,0-0.5,0-0.8,0c-1-0.1-1.7-0.9-1.7-1.8
		c0-1,0.8-1.7,1.8-1.7c1.7,0,3.4,0,5.1,0c2.8,0,5.7,0,8.5,0c1.6,0,2.2,0.6,2.2,2.2c0,0.5,0,1,0,1.4c2.1-2.1,4.2-4.2,6.2-6.2
		c-2-2-4.1-4.1-6.2-6.2c0,0.6,0,1.3,0,1.9c0,1.2-0.7,1.9-1.9,1.9c-4.8,0-9.5,0-14.3,0c-1.1,0-1.9-0.8-1.9-1.8s0.8-1.8,2-1.8
		c3.8,0,7.7,0,11.5,0c0.3,0,0.6,0,1.1,0c0-1.5,0-2.9,0-4.4c0-0.9,0.2-1.8,1.1-2.2c1-0.4,1.7,0.1,2.4,0.8c3.3,3.4,6.7,6.7,10.1,10.1
		c0.3,0.3,0.6,0.7,0.9,1.1C93.5,79.5,93.5,79.9,93.5,80.3z"/>
	<path class="st0" d="M14.9,0.6c1,0.6,1.3,1.5,1.2,2.6c-0.1,1.3,0,2.5,0,3.9c0.4,0,0.7,0,1,0c3.2,0,6.4,0,9.6,0c1.1,0,1.8,0.5,2,1.4
		c0.2,1.2-0.6,2.2-1.9,2.2c-2.3,0-4.7,0-7,0c-1.7,0-3.5,0-5.2,0c-1.5,0-2.1-0.6-2.1-2.1c0-0.5,0-1,0-1.3c-2,2-4.1,4.2-6.2,6.2
		c1.9,1.9,4,4,6.2,6.2c0-0.7,0-1.3,0-2c0-1.4,0.7-2,2.1-2c4,0,8.1,0,12.1,0c1.3,0,2.1,0.7,2.1,1.8c0,1.1-0.8,1.7-2.1,1.8
		c-3.2,0-6.3,0-9.5,0c-0.3,0-0.7,0-1.1,0c0,1.6,0,3.2,0,4.7c0,1.3-0.9,2.1-2,1.9c-0.4-0.1-0.9-0.3-1.2-0.6
		c-3.6-3.5-7.1-7.1-10.7-10.6c-0.9-0.9-0.9-1.8,0-2.7C5.8,8.3,9.4,4.8,13,1.2c0.3-0.3,0.6-0.4,0.9-0.6C14.2,0.6,14.5,0.6,14.9,0.6z"
		/>
	<path class="st0" d="M37,8.8c0,1-0.7,1.8-1.7,1.8c-1,0-1.9-0.8-1.8-1.8c0-0.9,0.8-1.8,1.8-1.8C36.2,7.1,37,7.8,37,8.8z"/>
	<path class="st0" d="M58.1,84.2c0-1,0.8-1.8,1.7-1.8c1,0,1.8,0.8,1.8,1.7c0,1-0.8,1.9-1.8,1.8C58.9,86,58.1,85.2,58.1,84.2z"/>
</g>
</svg>
