<?xml version="1.0" encoding="utf-8"?>
<!-- Generator: Adobe Illustrator 26.0.1, SVG Export Plug-In . SVG Version: 6.00 Build 0)  -->
<svg version="1.1" id="Capa_1" xmlns="http://www.w3.org/2000/svg" xmlns:xlink="http://www.w3.org/1999/xlink" x="0px" y="0px"
	 viewBox="0 0 64.7 68" style="enable-background:new 0 0 64.7 68;" xml:space="preserve">
<style type="text/css">
	.st0{fill:#576574;}
</style>
<path id="Path_1252" class="st0" d="M63.4,18c-1-0.5-2.1-0.4-3.1,0.1l-6.7,3.5v-6.9c0.1-1.1-0.5-2-1.4-2.6c-1-0.5-2.2-0.4-3.1,0.2
	l-5.9,3.2V8.8c0.1-1.1-0.5-2-1.4-2.6c-1-0.5-2.1-0.4-3.1,0.2L33,9.5V2.9c0.1-1.1-0.5-2.1-1.4-2.6c-1-0.5-2.1-0.4-3.1,0.2L2.1,14.7
	c-1,0.4-1.6,1.3-1.7,2.4c0.1,1.1,0.7,2,1.7,2.4L8,22.7L1.7,26c-1,0.4-1.6,1.3-1.7,2.4c0.1,1.1,0.7,2,1.7,2.4l6.4,3.5l-6,3.2
	c-1,0.4-1.6,1.3-1.7,2.4c0.1,1.1,0.7,2,1.7,2.4l5.9,3.2l-6,3.2c-1,0.4-1.6,1.4-1.7,2.4c0.1,1.1,0.7,2,1.7,2.4l25.9,14
	c0.6,0.3,1.2,0.5,1.8,0.5c0.4,0,0.9-0.1,1.3-0.3c0.9-0.5,1.4-1.5,1.4-2.6v-6.4l6.3,3.4c0.5,0.3,1.2,0.5,1.8,0.5
	c0.4,0,0.9-0.1,1.3-0.3c0.9-0.5,1.4-1.5,1.4-2.6v-6.8l5.9,3.2c0.6,0.3,1.2,0.5,1.8,0.5c0.4,0,0.9-0.1,1.3-0.3
	c0.9-0.5,1.4-1.5,1.4-2.6v-6.6l6.7,3.6c0.5,0.3,1.2,0.5,1.8,0.5c0.4,0,0.9-0.1,1.3-0.3c0.9-0.5,1.4-1.5,1.4-2.6V20.6
	C64.8,19.6,64.3,18.6,63.4,18z M50.2,14c0.3-0.2,0.6-0.2,0.9-0.2c0.1,0.1,0.3,0.3,0.3,0.8v8.1l-17.8,9.2c-1.5,0.6-3.1,0.6-4.5-0.1
	l-5.9-3.2L50.2,14z M39.9,8.2C40.3,8,40.6,8,40.8,8S41,8.4,41,8.8v7.8L21,27.4l-8.5-4.7L39.9,8.2z M3.2,17.7
	c-0.4-0.2-0.6-0.5-0.6-0.6s0.2-0.4,0.6-0.6L29.6,2.3C30.1,2,30.4,2,30.5,2.1s0.3,0.3,0.3,0.8v7.8L10.2,21.5L3.2,17.7z M30.3,65.1
	c0,0.5-0.1,0.7-0.3,0.8s-0.4,0.1-0.9-0.2l-25.9-14c-0.5-0.2-0.6-0.5-0.6-0.6s0.2-0.4,0.6-0.6l7-3.8l20,10.8L30.3,65.1L30.3,65.1z
	 M30.3,55.1L3.2,40.6c-0.5-0.2-0.6-0.5-0.6-0.6s0.2-0.4,0.6-0.6l7.1-3.8l20,10.8L30.3,55.1L30.3,55.1z M30.3,43.9L2.8,29
	c-0.4-0.2-0.6-0.5-0.6-0.6s0.2-0.4,0.6-0.6l7.4-3.9l17.7,9.7c0.7,0.4,1.6,0.6,2.4,0.7c0,0,0,0,0,0.1L30.3,43.9z M40.8,60.5
	c-0.1,0.1-0.4,0.1-0.9-0.2l-7.4-4V34.4c0,0,0-0.1,0-0.1c0.7-0.1,1.5-0.3,2.1-0.6l6.4-3.3v29.3C41,60.1,40.9,60.4,40.8,60.5
	L40.8,60.5z M51.1,54.5c-0.1,0.1-0.4,0.1-0.9-0.2l-7-3.8V29.3l8.1-4.2v28.6C51.4,54.2,51.2,54.4,51.1,54.5L51.1,54.5z M62.5,48.3
	c0,0.5-0.1,0.7-0.3,0.8s-0.4,0.1-0.9-0.2l-7.8-4.2V23.9l7.8-4c0.3-0.2,0.6-0.2,0.9-0.2c0.2,0.2,0.3,0.5,0.3,0.8L62.5,48.3z"/>
</svg>
