<?xml version="1.0" encoding="utf-8"?>
<!-- Generator: Adobe Illustrator 26.0.1, SVG Export Plug-In . SVG Version: 6.00 Build 0)  -->
<svg version="1.1" id="Capa_1" xmlns="http://www.w3.org/2000/svg" xmlns:xlink="http://www.w3.org/1999/xlink" x="0px" y="0px"
	 viewBox="0 0 58 69.6" style="enable-background:new 0 0 58 69.6;" xml:space="preserve">
<style type="text/css">
	.st0{fill:none;stroke:#576574;stroke-width:2.118;stroke-linejoin:round;}
</style>
<g id="Group_1146" transform="translate(1.059 1.059)">
	<g id="Group_913" transform="translate(0 0)">
		<path id="Path_445" class="st0" d="M48.5,8.2C37.6-2.7,19.9-2.7,9,8.2C-1.9,19.1-1.9,36.8,9,47.7l19.8,19.8l19.8-19.8
			C57.9,37.1,56.5,20,48.5,8.2z"/>
		<path id="Path_446" class="st0" d="M39.9,27.9c0,6.2-5,11.2-11.2,11.2c-6.2,0-11.2-5-11.2-11.2c0-6.2,5-11.2,11.2-11.2
			c0,0,0,0,0,0C34.9,16.8,39.9,21.8,39.9,27.9z"/>
		<path id="Path_447" class="st0" d="M48.3,27.9c0,10.8-8.8,19.6-19.6,19.6C18,47.5,9.2,38.7,9.2,27.9C9.2,17.1,18,8.4,28.8,8.4
			C39.6,8.4,48.3,17.1,48.3,27.9z"/>
	</g>
</g>
</svg>
