<?xml version="1.0" encoding="utf-8"?>
<!-- Generator: Adobe Illustrator 26.0.1, SVG Export Plug-In . SVG Version: 6.00 Build 0)  -->
<svg version="1.1" id="Group_926" xmlns="http://www.w3.org/2000/svg" xmlns:xlink="http://www.w3.org/1999/xlink" x="0px" y="0px"
	 viewBox="0 0 95.1 93.1" style="enable-background:new 0 0 95.1 93.1;" xml:space="preserve">
<style type="text/css">
	.st0{fill:none;}
	.st1{fill:#576574;}
</style>
<path id="Path_453" class="st0" d="M80,61.7c2,0,4,0.4,5.9,1.2c9-21.7-1.3-46.5-23-55.5s-46.5,1.3-55.5,23s1.3,46.5,23,55.5
	c11.8,4.9,25.1,4.2,36.3-1.8c-4-7.4-1.3-16.6,6.1-20.6C74.9,62.3,77.4,61.7,80,61.7L80,61.7z M57.7,69.1c-0.1,1.8-1.5,3.3-3.3,3.5
	H38.8c-1.8-0.2-3.3-1.7-3.4-3.5V58H24c-1.8-0.2-3.2-1.8-3.3-3.6V38.8c0.1-1.7,1.5-3.1,3.3-3.1h11.4V24c0.1-1.8,1.6-3.3,3.4-3.3h15.7
	c1.8,0.1,3.2,1.6,3.2,3.3v11.6h11.5c1.7,0,3.1,1.4,3.1,3.1v15.6c0,1.7-1.5,3.6-3.2,3.6H57.7V69.1z"/>
<path id="Path_454" class="st0" d="M53.5,37.5V24.5H39.6v12.9c-0.1,1.1-1,2-2.1,2H24.6v14.3h12.9c1.1,0,2,0.8,2.1,1.9v13.1h13.9
	V55.7c0.2-1.1,1.1-1.9,2.2-1.9h12.4V39.5H55.7C54.6,39.4,53.6,38.6,53.5,37.5z"/>
<path id="Path_455" class="st1" d="M72.3,54.4V38.8c0-1.7-1.4-3.1-3.1-3.1H57.7V24c0-1.8-1.4-3.2-3.2-3.3H38.8
	c-1.8,0.1-3.3,1.5-3.4,3.3v11.6H24c-1.7,0-3.2,1.4-3.3,3.1v15.6c0,1.8,1.4,3.4,3.3,3.6h11.4v11.1c0.1,1.8,1.5,3.3,3.4,3.5h15.6
	c1.8-0.2,3.2-1.7,3.3-3.5V58h11.4C70.8,58,72.3,56.1,72.3,54.4z M68.1,53.8H55.7c-1.1,0-2,0.8-2.2,1.9v13.1H39.6V55.7
	c-0.1-1.1-1-1.9-2.1-1.9H24.6V39.5h12.9c1.1-0.1,2-0.9,2.1-2V24.5h13.9v12.9c0.1,1.1,1.1,2,2.2,2h12.5L68.1,53.8z"/>
<path id="Path_456" class="st1" d="M89.4,64.9c10.1-23.6-0.8-51-24.4-61.1S14,4.6,3.8,28.2s0.8,51,24.4,61.1
	c13.2,5.7,28.3,4.9,40.8-2c5.8,6,15.4,6.2,21.4,0.4c6-5.8,6.2-15.4,0.4-21.4C90.4,65.8,89.9,65.4,89.4,64.9z M46.6,89.1
	C23.1,89.1,4.2,70,4.2,46.6c0-23.4,19.1-42.4,42.5-42.4s42.4,19.1,42.4,42.5c0,5.5-1.1,11-3.2,16.1c-7.7-3.3-16.6,0.3-19.9,8.1
	c-1.8,4.3-1.6,9.1,0.6,13.2C60.5,87.4,53.6,89.1,46.6,89.1L46.6,89.1z M89.5,73.7L78.8,84.2l-0.4,0.4c-0.6,0.4-1.4,0.4-2-0.1
	l-0.2-0.2l-0.8-0.8l-2.8-2.9L71.3,79c-0.8-0.7-0.8-2-0.1-2.7c0.7-0.8,2-0.8,2.7-0.1c0,0,0.1,0.1,0.1,0.1l1.5,1.6l2,2.1l7.7-7.5
	l1.6-1.5c0.8-0.7,2-0.7,2.7,0C90.3,71.7,90.3,73,89.5,73.7L89.5,73.7L89.5,73.7z"/>
</svg>
