<?xml version="1.0" encoding="utf-8"?>
<!-- Generator: Adobe Illustrator 26.2.1, SVG Export Plug-In . SVG Version: 6.00 Build 0)  -->
<svg version="1.1" id="Group_926" xmlns="http://www.w3.org/2000/svg" xmlns:xlink="http://www.w3.org/1999/xlink" x="0px" y="0px"
	 viewBox="0 0 95.1 93.1" style="enable-background:new 0 0 95.1 93.1;" xml:space="preserve">
<style type="text/css">
	.st0{fill:#576574;}
</style>
<g>
	<path class="st0" d="M32.2,24.8c3.1-1.3,5.9-2.5,9-3.7c0-1.4,0-3.1,0-4.8c0-1.3,0.2-1.6,1.5-1.6c3,0,6,0,9,0c1.2,0,1.5,0.3,1.5,1.5
		c0,1.7,0,3.3,0,5c0,0.1,0.1,0.1,0.1,0c2.9,1.2,5.8,2.4,8.8,3.7c1-1,2.1-2.1,3.4-3.4c1-1,1.3-1,2.3,0c2.1,2.1,4.2,4.2,6.2,6.2
		c0.9,0.9,0.9,1.3,0,2.1c-1,1-2.1,2.1-3.2,3.2c-0.4,0.3-0.4,0.6-0.1,1c1.5,2.3,2.5,4.8,3.1,7.5c0.1,0.6,0.4,0.7,0.9,0.7
		c1.5,0,3,0,4.5,0c1.1,0,1.4,0.3,1.4,1.4c0,3.1,0,6.1,0,9.2c0,1.1-0.3,1.4-1.5,1.4c-1.5,0-3,0-4.5,0c-0.2,0-0.7,0.2-0.7,0.4
		c-0.7,2.9-1.9,5.8-3.6,8.4c1.2,1.2,2.5,2.5,3.7,3.7c0.9,0.9,0.9,1.2,0,2.1c-2.1,2.1-4.2,4.2-6.4,6.4c-0.9,0.9-1.2,0.9-2.1,0
		c-1.2-1.2-2.4-2.4-3.6-3.6c-0.9,0.4-1.6,1-2.4,1.3c-1.9,0.7-3.8,1.5-5.8,2.1c-0.6,0.2-0.7,0.4-0.7,0.9c0.1,1.5,0,2.9,0,4.4
		c0,1.2-0.3,1.5-1.5,1.5c-3.1,0-6.1,0-9.1,0c-1.1,0-1.4-0.4-1.5-1.5c0-1.5,0-3.1,0-4.6c0-0.2-0.2-0.6-0.4-0.7
		c-2.9-0.7-5.8-1.9-8.4-3.6c-1.2,1.2-2.5,2.5-3.7,3.7c-0.9,0.9-1.2,0.9-2,0.1c-2.1-2.1-4.3-4.3-6.4-6.4c-0.9-0.9-0.9-1.2,0-2
		c1-1,2.1-2.1,3.2-3.2c0.4-0.4,0.4-0.7,0.1-1.2c-1.4-2.3-2.5-4.7-3.1-7.4c-0.1-0.6-0.4-0.8-1-0.8c-1.5,0.1-2.9,0-4.4,0
		c-1,0-1.3-0.3-1.4-1.3c0-3.1,0-6.2,0-9.4c0-1,0.3-1.3,1.3-1.3c1.5,0,3.1,0,4.6,0c0.5,0,0.7-0.2,0.9-0.7c0.7-2.7,1.7-5.2,3.1-7.5
		c0.3-0.5,0.2-0.7-0.2-1c-1.1-1-2.2-2.1-3.2-3.2c-0.7-0.7-0.7-1.2,0-1.9c2.2-2.2,4.3-4.4,6.6-6.6c0.8-0.8,1.2-0.8,2,0
		C29.9,22.5,31.2,23.7,32.2,24.8z M43.3,79.6c2.7,0,5.3,0,8,0c0-1.6,0-3.2,0-4.8c0-1.3,0.1-1.4,1.3-1.7c3-0.7,5.9-1.8,8.5-3.5
		c1.2-0.7,1.3-0.7,2.3,0.2c1.1,1.1,2.2,2.3,3.3,3.3c1.9-1.9,3.7-3.7,5.6-5.6c-1.1-1.1-2.3-2.2-3.4-3.4c-0.9-0.9-0.9-1.1-0.2-2.1
		c1.7-2.6,2.8-5.3,3.5-8.3c0.4-1.5,0.4-1.6,2-1.6c1.5,0,3.1,0,4.6,0c0-2.7,0-5.3,0-7.9c-1.7,0-3.3,0-4.9,0c-0.9,0-1.3-0.4-1.5-1.2
		c-0.6-3.1-1.8-6-3.6-8.7c-0.7-1-0.6-1.3,0.2-2.1c1.2-1.2,2.3-2.3,3.4-3.4c-1.9-1.9-3.7-3.7-5.6-5.6c-1,1-2.1,2.1-3.2,3.2
		c-1.1,1.1-1.2,1.1-2.5,0.3c-2.5-1.6-5.3-2.8-8.2-3.4c-1.5-0.3-1.6-0.4-1.6-2s0-3.1,0-4.6c-2.7,0-5.3,0-7.9,0c0,1.6,0,3.1,0,4.7
		c0,1.4-0.1,1.6-1.5,1.9c-3,0.7-5.8,1.8-8.5,3.5c-1.1,0.7-1.3,0.7-2.1-0.2c-1.2-1.2-2.3-2.3-3.4-3.4c-1.9,1.9-3.7,3.7-5.6,5.6
		c1.1,1.1,2.2,2.2,3.4,3.3c0.9,0.9,1,1.2,0.2,2.2c-1.5,2.4-2.7,4.9-3.3,7.7c-0.5,2.1-0.2,2.3-2.9,2.3c-1.3,0-2.6,0-3.8,0
		c0,2.7,0,5.3,0,7.9c1.7,0,3.3,0,5,0c0.9,0,1.3,0.3,1.5,1.2c0.6,3.1,1.8,6.1,3.6,8.8c0.5,0.7,0.4,1.3-0.2,2
		c-1.2,1.2-2.3,2.3-3.4,3.4c1.9,1.9,3.7,3.7,5.6,5.6c1-1,2.2-2.2,3.3-3.3c0.9-0.9,1.1-0.9,2.1-0.2c2.6,1.7,5.5,2.9,8.5,3.6
		c1.2,0.2,1.4,0.4,1.4,1.7C43.3,76.4,43.3,78,43.3,79.6z"/>
	<path class="st0" d="M90.8,46.6c0,0.6,0,1,0,1.5c0,0.7-0.3,1.1-1,1.1s-1-0.4-1-1.1c-0.2-2.3-0.3-4.7-0.7-7
		c-1.7-9.6-6.2-17.6-13.6-24.1c-6.4-5.6-13.8-8.9-22.2-10c-0.6-0.1-1-0.1-1.3,0.6C50,9.5,47.9,10.3,46,9.7c-1.9-0.6-3.2-2.4-3.1-4.3
		c0.1-2,1.6-3.6,3.4-3.9c2.1-0.4,4,0.7,4.7,2.6c0.2,0.5,0.4,0.8,1,0.9c10.1,1.2,18.8,5.3,26,12.5c6.8,6.8,10.8,15,12.3,24.5
		c0.1,0.6,0.2,1.2,0.2,1.9C90.7,44.8,90.8,45.8,90.8,46.6z M49.4,5.7c0-1.2-0.9-2.1-2.1-2.1s-2.1,0.9-2.1,2.1s1,2.2,2.1,2.1
		C48.4,7.9,49.4,6.9,49.4,5.7z"/>
	<path class="st0" d="M11.9,76.7c-1.3-0.1-2.5-0.8-3.3-2.2c-0.8-1.5-0.7-2.9,0.2-4.3c0.4-0.6,0.3-0.9,0.1-1.4
		C4.3,60.4,2.7,51.4,4.1,42c1.8-12.1,7.8-21.8,17.6-29c0.1-0.1,0.3-0.2,0.4-0.3c0.6-0.3,1-0.3,1.4,0.2c0.4,0.5,0.2,1-0.2,1.4
		c-0.7,0.6-1.5,1.1-2.2,1.7c-8.6,7-13.6,16-15.1,26.9c-1.2,8.6,0.3,16.8,4.3,24.6c0.4,0.7,0.7,1.1,1.7,1c2.3-0.3,4.4,1.7,4.5,4
		C16.7,74.8,14.7,76.7,11.9,76.7z M12.4,70.4c-1.2,0-2.2,1-2.2,2.1s1,2.1,2.2,2.1s2.1-1,2.1-2.2C14.5,71.4,13.6,70.4,12.4,70.4z"/>
	<path class="st0" d="M84.6,66.2c-1.8-2.2-2.1-4.2-0.8-5.9c1.2-1.6,3.3-2.1,5.1-1.4c1.8,0.8,2.9,2.7,2.5,4.7c-0.4,2.1-2,3.2-4.8,3.4
		c-1.8,3.7-4,7.2-6.9,10.2C72,85.6,62.5,90.3,51.1,91.4c-6.2,0.6-12.2-0.2-18-2.2c-0.2-0.1-0.4-0.1-0.5-0.2
		c-0.7-0.2-1.2-0.7-0.9-1.4c0.2-0.8,0.9-0.7,1.6-0.6c1.7,0.5,3.3,1.1,5,1.4c15.3,2.9,28.4-1.2,39.3-12.2
		C80.5,73.4,82.9,70,84.6,66.2z M87.2,60.6c-1.2,0-2.1,1-2.1,2.2c0,1.2,1,2.1,2.2,2.1c1.2,0,2.1-1,2.1-2.2
		C89.4,61.6,88.4,60.6,87.2,60.6z"/>
	<path class="st0" d="M47.1,67.6C36.3,67.6,27.7,58.8,27.8,48c0.1-10.7,8.9-19.3,19.7-19.2c10.7,0.1,19.4,8.9,19.2,19.5
		C66.6,59,57.8,67.7,47.1,67.6z M50.6,53.7c0,0.9,0,1.6,0,2.3c-0.1,1.1-0.9,1.6-1.8,0.9c-3.7-2.6-7.4-5.2-11-7.8
		c-0.8-0.6-0.8-1.3,0-1.8c3.7-2.6,7.4-5.3,11.1-7.9c0.9-0.6,1.7-0.2,1.7,0.9c0,0.8,0,1.5,0,2.4c4.4,0,8.8,0,13,0
		c-1.6-5.8-8.5-12.9-18.7-11.7c-8.7,1-15.4,8.9-15.2,17.9c0.3,8.8,7.5,16.4,16.2,16.7c8.1,0.4,16.8-5.5,17.6-11.9
		C59.3,53.7,55,53.7,50.6,53.7z M48.5,54.2c0-0.4,0.1-0.5,0.1-0.7c0-1.9,0.1-2,2-2c4.3,0,8.6,0,13,0c0.7,0,0.9-0.2,0.9-0.9
		c0-1.7,0-3.4,0-5c0-0.7-0.3-1-1.1-1c-4.5,0.1-8.9,0-13.4,0c-1.2,0-1.5-0.2-1.5-1.5c0-0.3,0-0.6,0-1.2c-2.9,2.1-5.7,4-8.6,6.1
		C42.9,50.2,45.6,52.2,48.5,54.2z"/>
</g>
</svg>
