<?xml version="1.0" encoding="utf-8"?>
<!-- Generator: Adobe Illustrator 26.0.1, SVG Export Plug-In . SVG Version: 6.00 Build 0)  -->
<svg version="1.1" id="Capa_1" xmlns="http://www.w3.org/2000/svg" xmlns:xlink="http://www.w3.org/1999/xlink" x="0px" y="0px"
	 viewBox="0 0 46.8 69.4" style="enable-background:new 0 0 46.8 69.4;" xml:space="preserve">
<style type="text/css">
	.st0{fill:#576574;}
</style>
<g id="Group_1142" transform="translate(0.98 0.98)">
	<g id="Rectangle_140">
		<path class="st0" d="M27.5,55.2H5c-3.3,0-6-2.7-6-6V5c0-3.3,2.7-6,6-6h22.5c3.3,0,6,2.7,6,6v44.2C33.5,52.5,30.8,55.2,27.5,55.2z
			 M5,1C2.8,1,1,2.8,1,5v44.2c0,2.2,1.8,4,4,4h22.5c2.2,0,4-1.8,4-4V5c0-2.2-1.8-4-4-4H5z"/>
	</g>
	<g id="Path_436">
		<path class="st0" d="M32.9,62.1H11.7c-3.6,0-6.6-3-6.6-6.6c0-0.5,0.4-1,1-1c0,0,0,0,0,0c0.5,0,1,0.4,1,1c0,2.6,2.1,4.6,4.6,4.6
			h21.3c2.5,0,4.6-2.1,4.6-4.6v-43c0-2.5-2.1-4.6-4.6-4.6c-0.5,0-1-0.4-1-1c0-0.5,0.4-1,1-1c0,0,0,0,0,0c3.6,0,6.6,3,6.6,6.6v43
			C39.5,59.1,36.6,62.1,32.9,62.1z"/>
	</g>
	<g id="Path_437">
		<path class="st0" d="M39.3,68.4H18c-3.6,0-6.6-3-6.6-6.6c0-0.5,0.4-1,1-1c0,0,0,0,0,0c0.5,0,1,0.4,1,1c0,2.6,2.1,4.6,4.6,4.6h21.3
			c2.5,0,4.6-2.1,4.6-4.6v-43c0-2.5-2.1-4.6-4.6-4.6c-0.5,0-1-0.4-1-1c0-0.5,0.4-1,1-1c0,0,0,0,0,0c3.6,0,6.6,3,6.6,6.6v43
			C45.8,65.4,42.9,68.4,39.3,68.4z"/>
	</g>
	<g id="Line_22">
		<path class="st0" d="M32.5,44.7H0.9c-0.5,0-1-0.4-1-1s0.4-1,1-1h31.6c0.5,0,1,0.4,1,1S33.1,44.7,32.5,44.7z"/>
	</g>
	<g id="Line_23">
		<path class="st0" d="M32.5,11.6H0.9c-0.5,0-1-0.4-1-1s0.4-1,1-1h31.6c0.5,0,1,0.4,1,1S33.1,11.6,32.5,11.6z"/>
	</g>
</g>
</svg>
