<?xml version="1.0" encoding="utf-8"?>
<!-- Generator: Adobe Illustrator 26.3.1, SVG Export Plug-In . SVG Version: 6.00 Build 0)  -->
<svg version="1.1" id="Capa_1" xmlns="http://www.w3.org/2000/svg" xmlns:xlink="http://www.w3.org/1999/xlink" x="0px" y="0px"
	 viewBox="0 0 61.8 59.1" style="enable-background:new 0 0 61.8 59.1;" xml:space="preserve">
<style type="text/css">
	.st0{fill:#576574;}
</style>
<path class="st0" d="M30.7,59.1c-10.9,0-19.9-8.9-19.9-19.9c0-5.2,2-10.1,5.6-13.8V14.6c0-7.9,6.4-14.3,14.3-14.3S45,6.7,45,14.6
	v2.3c0,0,0,0.1,0,0.1c0,1.3-1.1,2.3-2.4,2.3l0,0h0c-0.6,0-1.2-0.3-1.7-0.7c-0.4-0.4-0.7-1.1-0.7-1.7v-2.4c0-5.3-4.2-9.6-9.6-9.6
	c-5.3,0-9.6,4.2-9.6,9.6v7.2c2.9-1.6,6.2-2.5,9.6-2.5c10.9,0,19.9,8.9,19.9,19.9C50.6,50.2,41.7,59.1,30.7,59.1z M30.7,1.9
	c-7,0-12.7,5.7-12.7,12.7v11.5l-0.2,0.2c-3.4,3.4-5.3,8-5.3,12.9c0,10.1,8.2,18.3,18.3,18.3S49,49.3,49,39.2S40.8,21,30.7,21
	c-3.5,0-6.9,1-9.9,2.9l-1.2,0.8V14.6c0-3,1.1-5.8,3.2-7.9c2.1-2.1,4.9-3.2,7.9-3.2c3,0,5.8,1.1,7.9,3.2c2.1,2.1,3.2,4.9,3.2,7.9V17
	c0,0.2,0.1,0.4,0.2,0.6c0.2,0.2,0.4,0.2,0.6,0.2l0,0c0.4,0,0.8-0.4,0.8-0.8v-2.4C43.5,7.6,37.8,1.9,30.7,1.9z M30.9,54.8
	c-4.2,0-8.1-1.6-11.1-4.6c-3-3-4.6-6.9-4.6-11.1s1.6-8.1,4.6-11.1c3-3,6.9-4.6,11.1-4.6S39,25,42,28c3,3,4.6,6.9,4.6,11.1
	S45,47.2,42,50.2C39,53.2,35.1,54.8,30.9,54.8z M30.9,25c-7.8,0-14.1,6.3-14.1,14.1c0,7.8,6.3,14.1,14.1,14.1
	c7.8,0,14.1-6.3,14.1-14.1S38.7,25,30.9,25z"/>
<g>
	<g>
		<path class="st0" d="M31,48.7c-5.2,0-9.4-4.2-9.4-9.4h0.9c0,4.7,3.8,8.4,8.4,8.4s8.4-3.8,8.4-8.4s-3.8-8.4-8.4-8.4
			c-4.3,0-6.3,2.5-8.1,4.9c-0.2,0.2-0.3,0.4-0.4,0.6l-0.7-0.6c0.2-0.2,0.3-0.4,0.4-0.6c1.9-2.5,4.1-5.3,8.8-5.3
			c5.2,0,9.4,4.2,9.4,9.4C40.4,44.5,36.2,48.7,31,48.7z"/>
	</g>
	<g>
		<g>
			<polygon class="st0" points="26.8,36.5 21.6,36.5 21.6,31.3 22.6,31.3 22.6,35.6 26.8,35.6 			"/>
		</g>
	</g>
</g>
</svg>
