<?xml version="1.0" encoding="utf-8"?>
<!-- Generator: Adobe Illustrator 26.0.1, SVG Export Plug-In . SVG Version: 6.00 Build 0)  -->
<svg version="1.1" id="Capa_1" xmlns="http://www.w3.org/2000/svg" xmlns:xlink="http://www.w3.org/1999/xlink" x="0px" y="0px"
	 viewBox="0 0 64.1 67.4" style="enable-background:new 0 0 64.1 67.4;" xml:space="preserve">
<style type="text/css">
	.st0{fill:#576574;}
</style>
<g id="Group_1145" transform="translate(0 0)">
	<path id="Path_438" class="st0" d="M64.6,32.3c0-17.7-14.4-32-32-32c-17.7,0-32.1,14.4-32.1,32v1h9.3c0.6,12.2,10.6,21.8,22.7,21.8
		c12.5,0,22.7-10.2,22.7-22.7C55.2,19.8,45,9.6,32.5,9.6c-12.1,0-22.1,9.6-22.7,21.7H2.5c0.6-16.1,13.9-29,30-29
		c16.6,0,30,13.5,30,30c0,15-11.1,27.7-25.9,29.7c-0.6-1.8-2.2-3-4.1-3c-2.4,0-4.3,1.9-4.3,4.3c0,2.4,1.9,4.3,4.3,4.3
		c2.1,0,3.9-1.5,4.3-3.6C52.7,61.9,64.6,48.4,64.6,32.3z M32.5,11.6c11.4,0,20.7,9.3,20.7,20.7S43.9,53,32.5,53s-20.7-9.3-20.7-20.7
		C11.8,20.9,21.1,11.6,32.5,11.6z"/>
	<path id="Path_439" class="st0" d="M32.3,45.8c7.4,0,13.4-6,13.4-13.4S39.8,19,32.3,19S19,25,19,32.4S25,45.8,32.3,45.8z
		 M32.3,20.9c6.3,0,11.4,5.1,11.4,11.4s-5.1,11.4-11.4,11.4S21,38.7,21,32.3S26.1,20.9,32.3,20.9z"/>
</g>
</svg>
