<?xml version="1.0" encoding="utf-8"?>
<!-- Generator: Adobe Illustrator 26.0.1, SVG Export Plug-In . SVG Version: 6.00 Build 0)  -->
<svg version="1.1" id="Capa_1" xmlns="http://www.w3.org/2000/svg" xmlns:xlink="http://www.w3.org/1999/xlink" x="0px" y="0px"
	 viewBox="0 0 61.8 59.1" style="enable-background:new 0 0 61.8 59.1;" xml:space="preserve">
<style type="text/css">
	.st0{fill:#576574;}
</style>
<g>
	<path class="st0" d="M0.3,8.5c0.2-0.1,0.2-0.3,0.2-0.4c0.7-2,2.1-3.1,4.2-3.4c0.3,0,0.4-0.1,0.4-0.5c0-0.8,0-1.6,0-2.4
		c0-0.6,0.4-1,1-1c6.1,0,12.1,0.3,18,2.2c2.3,0.7,4.5,1.8,6.5,3.1c0.2,0.2,0.4,0.2,0.7,0.1c3.3-2.2,7-3.5,10.9-4.3
		c4.5-0.9,9-1.1,13.6-1.1c0.7,0,1,0.4,1,1c0,0.8,0,1.6,0,2.4c0,0.3,0.1,0.4,0.4,0.4C59.7,5,61.5,7,61.5,9.6c0,8.7,0,17.4,0,26.2
		c0,0.4-0.1,0.5-0.5,0.5c-1.4,0-1.4,0-1.4-1.4c0-8.4,0-16.8,0-25.2c0-1.6-0.9-2.7-2.3-3c-0.5-0.1-0.6,0-0.6,0.5c0,8.5,0,17.1,0,25.6
		c0,0.5-0.1,0.7-0.7,0.7c-1.3,0-1.3,0-1.3-1.3c0-9.6,0-19.1,0-28.7c0-0.5-0.1-0.7-0.7-0.7c-4.8,0.1-9.6,0.4-14.3,1.7
		c-2.7,0.7-5.2,1.8-7.6,3.3c-0.3,0.2-0.4,0.4-0.4,0.7c0,13,0,25.9,0,38.9c0,0.1,0,0.2,0,0.4c1-0.6,2-1.1,2.9-1.5
		c0.4-0.2,0.6-0.2,0.7,0.3c0.1,0.4,0.5,0.9,0.4,1.2c-0.1,0.3-0.7,0.4-1.1,0.6c-0.9,0.5-1.8,0.9-2.6,1.5c-0.1,0.1-0.3,0.1-0.3,0.4
		c0,0.7,0,1.4,0,2c0,0.3,0.3,0.2,0.4,0.2c1.3,0,2.6,0,3.9,0c0.4,0,0.5,0.1,0.5,0.5c0,1.4,0,1.4-1.4,1.4c-9.8,0-19.7,0-29.5,0
		c-2.9,0-4.3-1-5.3-3.7c0,0-0.1-0.1-0.1-0.1C0.3,36.6,0.3,22.5,0.3,8.5z M29.9,47.8c0-0.2,0-0.3,0-0.4c0-13,0-25.9,0-38.9
		c0-0.4-0.1-0.6-0.4-0.8c-2.2-1.4-4.6-2.5-7.1-3.2c-4.9-1.4-9.9-1.7-15-1.8C6.9,2.8,7,3.1,7,3.3c0,13,0,26.1,0,39.1
		c0,0.4,0.1,0.5,0.5,0.5c2.7,0,5.4,0.1,8.1,0.4C20.6,44,25.5,45.2,29.9,47.8z M2.2,29.5c0,6.6,0,13.1,0,19.7c0,2.2,1.1,3.3,3.3,3.3
		c7.7,0,15.4,0,23.1,0c1.3,0,1.3,0,1.3-1.3c0-0.5-0.1-0.6-0.6-0.6c-6.7,0-13.4,0-20.1,0c-0.9,0-1.3-0.3-1.3-1.3c0-1,0-2,0-2.9
		c0-0.5,0.2-1.2-0.1-1.4c-0.3-0.3-1-0.1-1.5-0.1c-1,0-1.3-0.3-1.3-1.3c0-4.3,0-8.7,0-13c0-7.8,0-15.6,0-23.4c0-0.5-0.1-0.6-0.6-0.5
		C3.1,7,2.2,8.1,2.2,9.6C2.2,16.3,2.2,22.9,2.2,29.5z M27.3,48.7c0,0,0-0.1,0-0.1c-0.4-0.2-0.8-0.4-1.2-0.6c-0.5-0.2-1-0.4-1.5-0.6
		c-4.6-1.7-9.5-2.3-14.4-2.5c-0.3,0-0.4,0.1-0.4,0.4c0,0.9,0,1.8,0,2.7c0,0.5,0.1,0.7,0.6,0.7c5.1,0,10.1,0,15.2,0
		C26.2,48.7,26.7,48.7,27.3,48.7z"/>
	<path class="st0" d="M49.1,33.4c0.6,0,1.2,0,1.8,0c0.7,0,1.1,0.4,1.1,1.1c0,0.6,0,1.2,0,1.8c0,0.3,0.1,0.4,0.4,0.6
		c0.9,0.6,1.5,0.3,2.2-0.5c1.2-1.4,1.5-1.3,2.7,0c0.6,0.6,1.2,1.2,1.8,1.8c0.7,0.7,0.7,1.1,0,1.8c-0.2,0.2-0.3,0.4-0.5,0.5
		c-0.8,0.5-1,1.1-0.5,2c0.2,0.3,0.3,0.5,0.7,0.5c0.6,0,1.2,0,1.7,0c0.7,0,1,0.4,1,1c0,1.2,0,2.4,0,3.6c0,0.7-0.4,1-1,1
		c-0.3,0-0.6,0-0.9,0c-1-0.2-1.6,0.1-1.9,1.2c-0.1,0.3-0.1,0.4,0.1,0.7c0.4,0.4,0.9,0.8,1.3,1.3c0.5,0.6,0.5,1,0,1.6
		c-0.8,0.8-1.7,1.7-2.5,2.5c-0.6,0.6-1,0.5-1.6,0c-0.4-0.4-0.9-0.9-1.3-1.3c-0.2-0.2-0.3-0.2-0.5-0.1c-1.3,0.5-1.3,0.5-1.3,1.9
		c0,1.8-0.1,1.9-1.9,1.9c-0.9,0-1.8,0-2.7,0c-0.8,0-1.1-0.4-1.1-1.1c0-0.6,0-1.2,0-1.9c0-0.2,0-0.4-0.3-0.4c0,0,0,0-0.1,0
		c-1.2-0.5-1.2-0.5-2.2,0.5c-1.2,1.2-1.5,1.3-2.7,0c-0.6-0.6-1.2-1.2-1.8-1.8c-0.7-0.7-0.7-1.1,0-1.8c0.2-0.2,0.3-0.4,0.5-0.5
		c0.7-0.5,1-1.1,0.5-2c-0.2-0.3-0.3-0.5-0.7-0.5c-0.6,0-1.2,0-1.7,0c-0.7,0-1-0.4-1-1c0-1.2,0-2.4,0-3.6c0-0.7,0.4-1,1-1
		c0.3,0,0.6,0,0.9,0c1,0.2,1.6-0.1,1.9-1.2c0.1-0.3,0.1-0.4-0.1-0.7c-0.4-0.4-0.9-0.8-1.3-1.3c-0.5-0.6-0.5-1,0-1.6
		c0.8-0.9,1.7-1.7,2.5-2.5c0.5-0.5,1-0.5,1.5,0c0.4,0.4,0.9,0.9,1.3,1.3c0.2,0.2,0.3,0.2,0.6,0.1c1.1-0.2,1.3-0.9,1.2-1.9
		c-0.1-1.8,0-1.9,1.9-1.9C48.4,33.4,48.7,33.4,49.1,33.4z M40.9,39.1c0.4,0.4,0.9,0.8,1.3,1.2c0.7,0.7,0.7,0.9,0.2,1.7
		c-0.3,0.5-0.5,1-0.7,1.5c-0.4,1.3-0.4,1.3-1.8,1.3c-1.5,0-1.5,0-1.5,1.5c0,0.3,0.1,0.5,0.4,0.4c0.5,0,1,0,1.5,0c0.8,0,1,0.2,1.2,1
		c0.2,0.6,0.4,1.1,0.6,1.7c0.6,1.2,0.6,1.2-0.3,2.1c-0.3,0.3-1,0.7-0.9,1.1c0,0.4,0.6,0.7,1,1.1c0.2,0.2,0.4,0.2,0.6,0
		c0.4-0.4,0.8-0.8,1.1-1.1c0.4-0.4,0.8-0.5,1.3-0.2c0.5,0.3,1.1,0.6,1.7,0.8c1.3,0.4,1.3,0.4,1.3,1.7c0,1.6,0,1.6,1.6,1.5
		c0.3,0,0.4-0.1,0.4-0.4c0-0.5,0-1.1,0-1.6c0-0.6,0.3-1,0.9-1.1c0.6-0.2,1.2-0.4,1.8-0.7c1.1-0.6,1.2-0.6,2.1,0.3
		c1.1,1.1,1.1,1.1,2.2-0.1c0.1-0.2,0.2-0.3,0-0.4c-0.3-0.3-0.7-0.7-1-1c-0.7-0.7-0.7-0.9-0.3-1.8c0.3-0.5,0.5-1,0.7-1.5
		c0.4-1.3,0.4-1.3,1.7-1.3c1.5,0,1.5,0,1.5-1.5c0-0.3-0.1-0.4-0.4-0.4c-0.5,0-1.1,0-1.6,0c-0.6,0-1-0.3-1.1-0.8
		c-0.2-0.8-0.5-1.5-0.9-2.2c-0.3-0.5-0.2-0.9,0.2-1.3c0.1-0.1,0.3-0.3,0.4-0.4c0.3-0.3,0.9-0.7,0.9-1c0-0.3-0.6-0.7-0.9-1
		c-0.2-0.3-0.4-0.3-0.6,0c-0.3,0.4-0.7,0.7-1.1,1.1c-0.4,0.4-0.9,0.5-1.4,0.2c-0.5-0.3-1.1-0.6-1.7-0.8C50,38.1,50,38.1,50,36.7
		c0-1.6,0-1.6-1.6-1.5c-0.3,0-0.3,0.1-0.3,0.3c0,0.5,0,1.1,0,1.6c0,0.6-0.3,1-0.9,1.2c-0.7,0.2-1.3,0.4-1.9,0.8
		c-0.9,0.5-1.1,0.4-1.8-0.2c-0.4-0.4-0.8-1.2-1.3-1.1C41.8,37.9,41.4,38.6,40.9,39.1z"/>
	<path class="st0" d="M51,11.5c0,0.8,0,0.9-0.8,0.9c-3.1,0.2-6.1,0.5-9.1,1.1c-1.5,0.4-3.1,0.8-4.5,1.4c-0.4,0.2-0.6,0.1-0.7-0.3
		c-0.5-1.3-0.6-1.3,0.7-1.8c3.1-1.1,6.2-1.7,9.5-2.1c1.4-0.1,2.8-0.2,4.2-0.3c0.9-0.1,0.7-0.1,0.8,0.7C51,11.3,51,11.4,51,11.5z"/>
	<path class="st0" d="M51,16.2c0,0.9,0,0.9-0.8,1c-3,0.2-6.1,0.5-9,1.1c-1.5,0.4-3.1,0.8-4.5,1.4c-0.4,0.2-0.6,0.1-0.7-0.3
		c0-0.1-0.1-0.2-0.1-0.3c-0.4-1-0.4-1,0.6-1.3c3.1-1.2,6.4-1.8,9.7-2.2c1.4-0.1,2.8-0.2,4.2-0.3c0.9-0.1,0.7-0.2,0.8,0.7
		C51,16,51,16.1,51,16.2z"/>
	<path class="st0" d="M51,21c0,0.8,0,0.9-0.8,0.9c-3,0.2-6.1,0.5-9,1.1c-1.6,0.4-3.1,0.8-4.6,1.4c-0.4,0.2-0.5,0.1-0.6-0.3
		c-0.6-1.3-0.6-1.4,0.8-1.8c3-1.1,6.2-1.7,9.4-2.1c1.4-0.1,2.8-0.2,4.2-0.3c0.6-0.1,0.8,0.1,0.7,0.7C51,20.8,51,20.9,51,21z"/>
	<path class="st0" d="M51,25.8c0,0.9,0,0.9-0.8,1c-3,0.2-6.1,0.5-9,1.1c-1.6,0.4-3.1,0.8-4.6,1.4c-0.3,0.1-0.5,0.1-0.6-0.2
		c-0.6-1.4-0.6-1.4,0.8-1.9c3-1.1,6.2-1.7,9.4-2c1.4-0.1,2.8-0.2,4.2-0.3c0.6-0.1,0.9,0,0.8,0.7C51,25.6,51,25.7,51,25.8z"/>
	<path class="st0" d="M51,30.6c0,0.8,0,0.9-0.8,0.9c-3.1,0.2-6.1,0.5-9.1,1.1c-1.6,0.4-3.1,0.8-4.6,1.4c-0.4,0.2-0.5,0.1-0.6-0.3
		c-0.6-1.3-0.6-1.4,0.8-1.8c3-1.1,6.2-1.7,9.4-2.1c1.4-0.1,2.8-0.2,4.2-0.3c0.6-0.1,0.8,0.1,0.7,0.7C51,30.4,51,30.5,51,30.6z"/>
	<path class="st0" d="M10.8,11.4c0-1.1,0-1,1.1-1c3.2,0.2,6.4,0.5,9.6,1.3c1.6,0.4,3.1,0.9,4.6,1.4c0.3,0.1,0.5,0.2,0.3,0.6
		c-0.2,0.4-0.3,1.1-0.6,1.2c-0.3,0.1-0.8-0.2-1.3-0.4c-3.2-1.2-6.6-1.7-10-2c-1-0.1-2-0.2-3-0.2c-0.5,0-0.7-0.1-0.6-0.6
		C10.8,11.6,10.8,11.5,10.8,11.4z"/>
	<path class="st0" d="M11.5,15.2c4.3,0.2,8.5,0.7,12.5,2c0.7,0.2,1.4,0.5,2.1,0.8c0.3,0.1,0.4,0.2,0.2,0.5c-0.2,0.4-0.3,1.1-0.7,1.3
		c-0.3,0.2-0.9-0.2-1.3-0.4c-3.3-1.2-6.6-1.7-10.1-2c-1.1-0.1-2.1-0.2-3.2-0.2c-0.3,0-0.3-0.1-0.3-0.4c0-0.3,0.1-0.6,0-1
		C10.8,15.3,11,15.1,11.5,15.2z"/>
	<path class="st0" d="M12.4,20.1c4.5,0.3,8.9,0.8,13.1,2.4c1.1,0.4,1,0.4,0.6,1.5c-0.2,0.6-0.4,0.7-1,0.5c-3.4-1.4-7-2-10.7-2.3
		c-1.1-0.1-2.1-0.2-3.2-0.2c-0.3,0-0.3-0.1-0.3-0.4C10.8,20,10.8,20,12.4,20.1z"/>
	<path class="st0" d="M11.4,24.8C16,25,20.4,25.5,24.7,27c0.5,0.2,1,0.4,1.4,0.5c0.2,0.1,0.3,0.2,0.2,0.4c0,0,0,0,0,0.1
		c-0.2,0.4-0.3,1.1-0.7,1.3c-0.3,0.2-0.9-0.2-1.3-0.4c-3.2-1.2-6.6-1.7-10-2c-1.1-0.1-2.1-0.2-3.2-0.2c-0.3,0-0.4-0.1-0.4-0.4
		c0-0.3,0-0.6,0-0.9C10.8,24.9,10.8,24.6,11.4,24.8z"/>
	<path class="st0" d="M10.8,30.5c0-1,0-1,1-0.9c3.2,0.2,6.5,0.5,9.6,1.3c1.5,0.4,3.1,0.8,4.5,1.4c0.4,0.1,0.5,0.3,0.3,0.7
		c-0.2,0.4-0.3,1-0.6,1.2c-0.3,0.2-0.8-0.2-1.2-0.4c-3.3-1.2-6.6-1.7-10.1-2c-1-0.1-2-0.2-3-0.2c-0.5,0-0.6-0.2-0.5-0.6
		C10.8,30.8,10.8,30.6,10.8,30.5z"/>
	<path class="st0" d="M11.4,34.3c4.8,0.3,9.5,0.8,14,2.5c1.1,0.4,1.1,0.4,0.7,1.5c-0.2,0.6-0.4,0.7-1,0.4c-3.4-1.4-7-2-10.6-2.3
		c-1.1-0.1-2.1-0.2-3.2-0.2c-0.3,0-0.4-0.1-0.4-0.4c0-0.3,0-0.6,0-1C10.8,34.4,10.9,34.2,11.4,34.3z"/>
	<path class="st0" d="M54.8,45.8c0,3.2-2.6,5.8-5.8,5.7c-3.1,0-5.7-2.6-5.7-5.8c0-3.2,2.6-5.7,5.7-5.7
		C52.2,40.1,54.8,42.7,54.8,45.8z M52.9,45.8c0-2.1-1.7-3.8-3.8-3.8c-2.1,0-3.8,1.7-3.8,3.8c0,2.1,1.7,3.8,3.8,3.8
		C51.1,49.6,52.9,47.9,52.9,45.8z"/>
</g>
</svg>
