<?xml version="1.0" encoding="utf-8"?>
<!-- Generator: Adobe Illustrator 26.0.1, SVG Export Plug-In . SVG Version: 6.00 Build 0)  -->
<svg version="1.1" id="Capa_1" xmlns="http://www.w3.org/2000/svg" xmlns:xlink="http://www.w3.org/1999/xlink" x="0px" y="0px"
	 viewBox="0 0 58.5 42.3" style="enable-background:new 0 0 58.5 42.3;" xml:space="preserve">
<style type="text/css">
	.st0{fill:#576574;}
</style>
<g id="Group_1144" transform="translate(0.911 0.911)">
	<g id="Rectangle_141">
		<path class="st0" d="M51.1,25.2H21.8c-3.6,0-6.5-2.9-6.5-6.5V5.6c0-3.6,2.9-6.5,6.5-6.5h29.3c3.6,0,6.5,2.9,6.5,6.5v13.1
			C57.6,22.3,54.7,25.2,51.1,25.2z M21.8,0.9c-2.6,0-4.7,2.1-4.7,4.7v13.1c0,2.6,2.1,4.7,4.7,4.7h29.3c2.6,0,4.7-2.1,4.7-4.7V5.6
			c0-2.6-2.1-4.7-4.7-4.7H21.8z"/>
	</g>
	<g id="Rectangle_142">
		<path class="st0" d="M43,33.3H13.7c-3.6,0-6.5-2.9-6.5-6.5V13.7c0-3.6,2.9-6.5,6.5-6.5H43c3.6,0,6.5,2.9,6.5,6.5v13.1
			C49.5,30.4,46.6,33.3,43,33.3z M13.7,9C11.1,9,9,11.1,9,13.7v13.1c0,2.6,2.1,4.7,4.7,4.7H43c2.6,0,4.7-2.1,4.7-4.7V13.7
			c0-2.6-2.1-4.7-4.7-4.7H13.7z"/>
	</g>
	<g id="Rectangle_143">
		<path class="st0" d="M34.9,41.4H5.6c-3.6,0-6.5-2.9-6.5-6.5V21.8c0-3.6,2.9-6.5,6.5-6.5h29.3c3.6,0,6.5,2.9,6.5,6.5v13.1
			C41.4,38.5,38.5,41.4,34.9,41.4z M5.6,17.1c-2.6,0-4.7,2.1-4.7,4.7v13.1c0,2.6,2.1,4.7,4.7,4.7h29.3c2.6,0,4.7-2.1,4.7-4.7V21.8
			c0-2.6-2.1-4.7-4.7-4.7H5.6z"/>
	</g>
</g>
</svg>
